<svg width="128" height="128" viewBox="0 0 128 128" fill="none" xmlns="http://www.w3.org/2000/svg">
<path fill-rule="evenodd" clip-rule="evenodd" d="M17.0089 0C36.0876 0 55.1664 0 74.245 0C74.2211 2.32603 74.245 4.65158 74.3166 6.97664C76.6666 7.11782 79.0275 7.16528 81.3996 7.11902C81.3996 11.865 81.3996 16.6111 81.3996 21.3571C88.5541 21.3571 95.7086 21.3571 102.863 21.3571C102.863 26.0556 102.863 30.7542 102.863 35.4527C105.248 35.4527 107.633 35.4527 110.018 35.4527C110.018 52.0638 110.018 68.6748 110.018 85.2859C107.633 85.2859 105.248 85.2859 102.863 85.2859C102.863 97.1509 102.863 109.016 102.863 120.881C100.478 120.881 98.0935 120.881 95.7086 120.881C95.7086 123.254 95.7086 125.627 95.7086 128C88.5541 128 81.3996 128 74.245 128C74.245 125.627 74.245 123.254 74.245 120.881C71.8602 120.881 69.4754 120.881 67.0905 120.881C67.0905 123.254 67.0905 125.627 67.0905 128C52.7815 128 38.4725 128 24.1635 128C24.1396 111.436 24.1635 94.8728 24.235 78.3092C26.5849 78.168 28.946 78.1206 31.318 78.1668C31.318 59.2303 31.318 40.2937 31.318 21.3571C26.5617 21.4039 21.8158 21.3565 17.0805 21.2147C17.0089 14.1432 16.9851 7.07172 17.0089 0Z" fill="#0E0D0E"/>
<path fill-rule="evenodd" clip-rule="evenodd" d="M24.3066 7.11902C38.568 7.11902 52.8293 7.11902 67.0906 7.11902C67.0906 9.49207 67.0906 11.865 67.0906 14.238C69.4755 14.238 71.8603 14.238 74.2451 14.238C74.2451 16.6111 74.2451 18.984 74.2451 21.3571C71.908 21.3571 69.5708 21.3571 67.2337 21.3571C67.0911 23.7052 67.0434 26.0781 67.0906 28.4761C64.7057 28.4761 62.321 28.4761 59.9361 28.4761C57.5512 28.4761 55.1665 28.4761 52.7816 28.4761C52.7816 28.4287 52.7816 28.3811 52.7816 28.3337C52.7816 26.0082 52.7816 23.6826 52.7816 21.3571C50.4696 21.2153 48.1325 21.1677 45.7702 21.2147C45.8174 18.8641 45.7696 16.5386 45.6271 14.238C38.5446 14.0958 31.4377 14.0484 24.3066 14.0957C24.3066 11.7702 24.3066 9.44452 24.3066 7.11902Z" fill="#C03534"/>
<path fill-rule="evenodd" clip-rule="evenodd" d="M24.3066 7.11902C24.3066 9.44452 24.3066 11.7702 24.3066 14.0957C31.4376 14.0484 38.5445 14.0958 45.627 14.238C38.4725 14.238 31.318 14.238 24.1635 14.238C24.1163 11.8401 24.164 9.46716 24.3066 7.11902Z" fill="#792123"/>
<path fill-rule="evenodd" clip-rule="evenodd" d="M67.0903 7.11902C67.2328 9.4196 67.2806 11.7451 67.2334 14.0957C69.5957 14.0487 71.9328 14.0962 74.2448 14.238C71.86 14.238 69.4752 14.238 67.0903 14.238C67.0903 11.865 67.0903 9.49207 67.0903 7.11902Z" fill="#491719"/>
<path fill-rule="evenodd" clip-rule="evenodd" d="M45.627 14.238C45.7695 16.5386 45.8173 18.8641 45.77 21.2146C48.1323 21.1676 50.4694 21.2152 52.7815 21.357C50.3966 21.357 48.0118 21.357 45.627 21.357C45.627 18.9839 45.627 16.611 45.627 14.238Z" fill="#7D2324"/>
<path fill-rule="evenodd" clip-rule="evenodd" d="M67.2336 21.357C67.2336 23.6825 67.2336 26.0081 67.2336 28.3336C76.7494 28.2864 86.241 28.3338 95.7085 28.476C86.1692 28.476 76.6299 28.476 67.0905 28.476C67.0433 26.078 67.0909 23.7051 67.2336 21.357Z" fill="#382F2D"/>
<path fill-rule="evenodd" clip-rule="evenodd" d="M52.7815 28.3337C52.7815 28.3811 52.7815 28.4286 52.7815 28.4761C48.0595 28.4761 43.3375 28.4761 38.6155 28.4761C38.6155 33.222 38.6155 37.9681 38.6155 42.7141C38.6155 54.5317 38.6155 66.3493 38.6155 78.1668C38.4725 61.5796 38.4248 44.9687 38.4725 28.3337C43.2421 28.3337 48.0119 28.3337 52.7815 28.3337Z" fill="#615D58"/>
<path fill-rule="evenodd" clip-rule="evenodd" d="M52.7815 28.4761C55.1664 28.4761 57.5512 28.4761 59.936 28.4761C59.936 30.8016 59.936 33.1272 59.936 35.4527C55.1664 35.4527 50.3967 35.4527 45.627 35.4527C45.627 37.8732 45.627 40.2936 45.627 42.7141C43.2899 42.7141 40.9527 42.7141 38.6156 42.7141C38.6156 37.9681 38.6156 33.222 38.6156 28.4761C43.3376 28.4761 48.0596 28.4761 52.7815 28.4761Z" fill="#E7DED1"/>
<path fill-rule="evenodd" clip-rule="evenodd" d="M59.936 28.4761C62.3209 28.4761 64.7057 28.4761 67.0905 28.4761C76.6299 28.4761 86.1692 28.4761 95.7086 28.4761C95.7086 30.8016 95.7086 33.1272 95.7086 35.4527C83.7845 35.4527 71.8602 35.4527 59.936 35.4527C59.936 33.1272 59.936 30.8016 59.936 28.4761Z" fill="#7B7770"/>
<path fill-rule="evenodd" clip-rule="evenodd" d="M59.936 35.4528C71.8601 35.4528 83.7844 35.4528 95.7085 35.4528C79.0865 35.5951 62.4402 35.6426 45.77 35.5951C45.8177 49.8097 45.7699 64.0002 45.627 78.1669C45.627 66.3493 45.627 54.5317 45.627 42.7142C45.627 40.2937 45.627 37.8732 45.627 35.4528C50.3966 35.4528 55.1664 35.4528 59.936 35.4528Z" fill="#55514D"/>
<path fill-rule="evenodd" clip-rule="evenodd" d="M38.6156 42.7141C40.9527 42.7141 43.2899 42.7141 45.627 42.7141C45.627 54.5317 45.627 66.3493 45.627 78.1668C43.2899 78.1668 40.9527 78.1668 38.6156 78.1668C38.6156 66.3493 38.6156 54.5317 38.6156 42.7141Z" fill="#7A776F"/>
<path fill-rule="evenodd" clip-rule="evenodd" d="M102.863 42.7141C93.3237 42.7141 83.7844 42.7141 74.245 42.7141C67.1382 42.7141 60.0314 42.7141 52.9246 42.7141C52.9246 47.4127 52.9246 52.1112 52.9246 56.8098C52.9246 63.9288 52.9246 71.0478 52.9246 78.1668C69.5707 78.1668 86.217 78.1668 102.863 78.1668C86.1932 78.3092 69.4994 78.3566 52.7815 78.3092C52.7815 66.3967 52.7815 54.4843 52.7815 42.5717C69.4994 42.5243 86.1932 42.5717 102.863 42.7141Z" fill="#6E6964"/>
<path fill-rule="evenodd" clip-rule="evenodd" d="M74.245 42.7141C74.245 45.0396 74.245 47.3653 74.245 49.6908C71.8601 49.6908 69.4754 49.6908 67.0905 49.6908C64.7056 49.6908 62.3209 49.6908 59.936 49.6908C59.936 52.0638 59.936 54.4367 59.936 56.8098C57.5989 56.8098 55.2617 56.8098 52.9246 56.8098C52.9246 52.1112 52.9246 47.4127 52.9246 42.7141C60.0314 42.7141 67.1381 42.7141 74.245 42.7141Z" fill="#E7DFD1"/>
<path fill-rule="evenodd" clip-rule="evenodd" d="M74.245 42.7141C83.7844 42.7141 93.3237 42.7141 102.863 42.7141C102.863 54.5317 102.863 66.3493 102.863 78.1668C86.2169 78.1668 69.5707 78.1668 52.9246 78.1668C52.9246 71.0478 52.9246 63.9288 52.9246 56.8098C55.2617 56.8098 57.5989 56.8098 59.936 56.8098C59.936 61.6033 59.936 66.3967 59.936 71.1902C62.3459 71.2372 64.7307 71.1898 67.0905 71.0478C67.0905 63.9762 67.0905 56.9047 67.0905 49.8331C67.0905 49.7857 67.0905 49.7382 67.0905 49.6908C69.4754 49.6908 71.8601 49.6908 74.245 49.6908C74.245 47.3653 74.245 45.0396 74.245 42.7141Z" fill="#B1A9A1"/>
<path fill-rule="evenodd" clip-rule="evenodd" d="M67.0905 49.6907C67.0905 49.7381 67.0905 49.7857 67.0905 49.8331C64.7535 49.8331 62.4162 49.8331 60.0791 49.8331C60.0791 56.9047 60.0791 63.9762 60.0791 71.0478C62.4162 71.0478 64.7535 71.0478 67.0905 71.0478C64.7307 71.1898 62.346 71.2372 59.936 71.1902C59.936 66.3967 59.936 61.6033 59.936 56.8098C59.936 54.4367 59.936 52.0638 59.936 49.6907C62.3209 49.6907 64.7057 49.6907 67.0905 49.6907Z" fill="#615D59"/>
<path fill-rule="evenodd" clip-rule="evenodd" d="M67.0905 49.8331C67.0905 56.9047 67.0905 63.9762 67.0905 71.0478C64.7534 71.0478 62.4162 71.0478 60.0791 71.0478C60.0791 63.9762 60.0791 56.9047 60.0791 49.8331C62.4162 49.8331 64.7534 49.8331 67.0905 49.8331Z" fill="#0D0D0D"/>
<path fill-rule="evenodd" clip-rule="evenodd" d="M74.245 49.6908C76.6549 49.6438 79.0397 49.6912 81.3995 49.8331C79.0624 49.8331 76.7252 49.8331 74.3881 49.8331C74.3881 56.9047 74.3881 63.9762 74.3881 71.0478C76.7252 71.0478 79.0624 71.0478 81.3995 71.0478C79.0397 71.1898 76.6549 71.2372 74.245 71.1902C74.245 64.0238 74.245 56.8572 74.245 49.6908Z" fill="#474341"/>
<path fill-rule="evenodd" clip-rule="evenodd" d="M81.3994 49.8331C81.3994 56.9047 81.3994 63.9762 81.3994 71.0478C79.0623 71.0478 76.725 71.0478 74.3879 71.0478C74.3879 63.9762 74.3879 56.9047 74.3879 49.8331C76.725 49.8331 79.0623 49.8331 81.3994 49.8331Z" fill="#0D0D0D"/>
<path fill-rule="evenodd" clip-rule="evenodd" d="M95.7086 49.8331C93.3715 49.8331 91.0343 49.8331 88.6972 49.8331C88.6972 56.9047 88.6972 63.9762 88.6972 71.0478C91.0343 71.0478 93.3715 71.0478 95.7086 71.0478C93.3487 71.1898 90.964 71.2372 88.5541 71.1902C88.5541 64.0238 88.5541 56.8572 88.5541 49.6908C90.964 49.6438 93.3487 49.6912 95.7086 49.8331Z" fill="#474341"/>
<path fill-rule="evenodd" clip-rule="evenodd" d="M95.7086 49.8331C95.7086 56.9047 95.7086 63.9762 95.7086 71.0478C93.3715 71.0478 91.0342 71.0478 88.6971 71.0478C88.6971 63.9762 88.6971 56.9047 88.6971 49.8331C91.0342 49.8331 93.3715 49.8331 95.7086 49.8331Z" fill="#0D0D0D"/>
<path fill-rule="evenodd" clip-rule="evenodd" d="M52.7816 85.2859C52.7816 85.3333 52.7816 85.3809 52.7816 85.4283C45.6747 85.4283 38.568 85.4283 31.4611 85.4283C31.4611 94.8728 31.4611 104.317 31.4611 113.762C31.4611 116.135 31.4611 118.508 31.4611 120.881C31.3182 109.04 31.2704 97.1749 31.318 85.2859C38.4725 85.2859 45.627 85.2859 52.7816 85.2859Z" fill="#294323"/>
<path fill-rule="evenodd" clip-rule="evenodd" d="M52.7814 85.4283C52.7814 94.8728 52.7814 104.317 52.7814 113.762C45.6745 113.762 38.5678 113.762 31.4609 113.762C31.4609 104.317 31.4609 94.8728 31.4609 85.4283C38.5678 85.4283 45.6745 85.4283 52.7814 85.4283Z" fill="#326E36"/>
<path fill-rule="evenodd" clip-rule="evenodd" d="M52.7815 85.2858C67.1146 85.2384 81.4236 85.286 95.7086 85.4282C81.4472 85.4282 67.186 85.4282 52.9246 85.4282C52.9721 94.8968 52.9244 104.341 52.7815 113.762C52.7815 104.317 52.7815 94.8727 52.7815 85.4282C52.7815 85.3808 52.7815 85.3332 52.7815 85.2858Z" fill="#948436"/>
<path fill-rule="evenodd" clip-rule="evenodd" d="M95.7085 85.4283C95.7085 87.7538 95.7085 90.0794 95.7085 92.4049C83.7843 92.4049 71.86 92.4049 59.9359 92.4049C59.9359 101.897 59.9359 111.389 59.9359 120.881C50.4443 120.881 40.9525 120.881 31.4609 120.881C31.4609 118.508 31.4609 116.135 31.4609 113.762C38.5678 113.762 45.6745 113.762 52.7814 113.762C52.9243 104.341 52.972 94.8969 52.9245 85.4283C67.1859 85.4283 81.4471 85.4283 95.7085 85.4283Z" fill="#E0A943"/>
<path fill-rule="evenodd" clip-rule="evenodd" d="M95.7086 92.4048C83.8561 92.5471 71.9797 92.5946 60.0791 92.5472C60.1266 102.016 60.079 111.46 59.936 120.881C59.936 111.389 59.936 101.897 59.936 92.4048C71.8602 92.4048 83.7845 92.4048 95.7086 92.4048Z" fill="#52411C"/>
<path fill-rule="evenodd" clip-rule="evenodd" d="M95.7085 99.6662C86.2168 99.6662 76.7251 99.6662 67.2335 99.6662C67.2335 104.365 67.2335 109.063 67.2335 113.762C67.0907 109.04 67.0429 104.294 67.0904 99.5239C76.6538 99.4766 86.1932 99.524 95.7085 99.6662Z" fill="#5E5B56"/>
<path fill-rule="evenodd" clip-rule="evenodd" d="M95.7086 99.6663C95.7086 104.365 95.7086 109.063 95.7086 113.762C93.3237 113.762 90.939 113.762 88.5541 113.762C86.217 113.762 83.8798 113.762 81.5427 113.762C81.5427 116.135 81.5427 118.508 81.5427 120.881C81.4 118.533 81.3524 116.16 81.3996 113.762C76.6776 113.762 71.9556 113.762 67.2336 113.762C67.2336 109.063 67.2336 104.365 67.2336 99.6663C76.7252 99.6663 86.217 99.6663 95.7086 99.6663Z" fill="#7B7770"/>
<path fill-rule="evenodd" clip-rule="evenodd" d="M88.554 113.762C88.554 116.135 88.554 118.508 88.554 120.881C86.2169 120.881 83.8797 120.881 81.5426 120.881C81.5426 118.508 81.5426 116.135 81.5426 113.762C83.8797 113.762 86.2169 113.762 88.554 113.762Z" fill="#B1A9A1"/>
</svg>
